<svg width="32" height="32" viewBox="0 0 32 32" fill="none" xmlns="http://www.w3.org/2000/svg">
<path fill-rule="evenodd" clip-rule="evenodd" d="M5.11645 10.5539C5.21686 9.58293 6.035 8.84503 7.01111 8.84503H24.4139C25.3653 8.84503 26.1708 9.5471 26.3008 10.4896L28.6007 27.169C28.7585 28.3136 27.8692 29.334 26.7138 29.334H5.28619C4.15672 29.334 3.27534 28.3568 3.39153 27.2333L5.11645 10.5539ZM7.01111 10.1149C6.68574 10.1149 6.41302 10.3608 6.37955 10.6845L4.65463 27.3639C4.6159 27.7384 4.9097 28.0641 5.28619 28.0641H26.7138C27.0989 28.0641 27.3954 27.724 27.3427 27.3425L25.0428 10.6631C24.9995 10.3489 24.731 10.1149 24.4139 10.1149H7.01111Z" fill="#ffffff"/>
<path fill-rule="evenodd" clip-rule="evenodd" d="M10.3109 5.6204C10.3109 3.98909 11.6334 2.66666 13.2647 2.66666C14.896 2.66666 16.2184 3.98909 16.2184 5.6204V11.5383C16.2184 11.889 15.9341 12.1733 15.5835 12.1733C15.2328 12.1733 14.9486 11.889 14.9486 11.5383V5.6204C14.9486 4.69041 14.1947 3.9365 13.2647 3.9365C12.3347 3.9365 11.5808 4.69041 11.5808 5.6204V11.5383C11.5808 11.889 11.2965 12.1733 10.9458 12.1733C10.5952 12.1733 10.3109 11.889 10.3109 11.5383V5.6204Z" fill="#ffffff"/>
<path fill-rule="evenodd" clip-rule="evenodd" d="M14.9473 5.6204C14.9473 3.98909 16.2697 2.66666 17.901 2.66666C19.5323 2.66666 20.8548 3.98909 20.8548 5.6204V9.32993C20.8548 9.68059 20.5705 9.96485 20.2198 9.96485C19.8692 9.96485 19.5849 9.68059 19.5849 9.32993V5.6204C19.5849 4.69041 18.831 3.9365 17.901 3.9365C16.971 3.9365 16.2171 4.69041 16.2171 5.6204V11.5383C16.2171 11.889 15.9328 12.1733 15.5822 12.1733C15.2315 12.1733 14.9473 11.889 14.9473 11.5383V5.6204Z" fill="#ffffff"/>
<path fill-rule="evenodd" clip-rule="evenodd" d="M19.8099 28.6332L21.7975 9.41406L23.0606 9.54469L21.073 28.7638L19.8099 28.6332Z" fill="#ffffff"/>
<path d="M13.7941 16.3473C13.6665 16.5181 13.5441 16.6956 13.408 16.8864C13.4424 16.7587 13.4735 16.6509 13.501 16.543C13.5993 16.1415 13.6786 15.7384 13.6631 15.322C13.6424 14.7944 13.3752 14.5008 12.834 14.4344C12.3652 14.378 11.9136 14.4477 11.481 14.6318C10.8347 14.9072 10.2693 15.2921 9.75744 15.7567C9.42134 16.0636 9.11971 16.4003 8.85945 16.7703C8.75776 16.9146 8.76983 17.0988 8.88703 17.2215C8.97493 17.3128 9.06284 17.3145 9.15246 17.2265C9.23002 17.1502 9.30586 17.0706 9.38515 16.9943C9.65919 16.7255 9.91773 16.4418 10.2435 16.2295C10.3193 16.1814 10.4003 16.1349 10.4848 16.105C10.6502 16.047 10.7761 16.1366 10.7692 16.3041C10.7657 16.3771 10.7502 16.4518 10.7244 16.5215C10.6227 16.8035 10.5158 17.0822 10.4089 17.3626C9.71435 19.1858 9.01975 21.009 8.31825 22.8306C8.24069 23.0281 8.36479 23.179 8.56817 23.1774C9.30931 23.1707 10.0504 23.174 10.7916 23.174C10.9519 23.174 11.0105 23.1326 11.0725 22.9916C11.4224 22.1936 11.7654 21.3939 12.1256 20.5993C12.5996 19.5524 13.1201 18.5288 13.782 17.5782C14.1095 17.1071 14.4559 16.6492 14.8541 16.2311C15.0092 16.0669 15.2039 15.9806 15.4401 16.0304C15.5435 16.052 15.6107 16.11 15.6348 16.2228C15.6641 16.3655 15.7072 16.5082 15.7675 16.6409C16.064 17.2995 16.7276 17.5218 17.3636 17.1568C17.9324 16.8317 18.215 16.3224 18.2323 15.692C18.2426 15.2938 18.0909 14.9421 17.779 14.6717C17.4118 14.3515 16.9723 14.2951 16.5052 14.378C15.983 14.4709 15.5297 14.7115 15.1091 15.0118C14.5903 15.3817 14.1715 15.8462 13.7941 16.3473Z" fill="#ffffff"/>
</svg>
