<svg width="174" height="32" viewBox="0 0 174 32" fill="none" xmlns="http://www.w3.org/2000/svg">
<path d="M8.856 31.16C7.61867 31.16 6.22133 31.0533 4.664 30.84C3.81067 30.7333 3.224 30.5093 2.904 30.168C2.584 29.8267 2.44533 29.272 2.488 28.504C2.63733 26.392 2.98933 23.7893 3.544 20.696C4.09867 17.5813 4.77067 14.584 5.56 11.704C5.70933 11.1707 6.008 10.7973 6.456 10.584C6.904 10.3707 7.49067 10.264 8.216 10.264C9.51733 10.264 10.168 10.6267 10.168 11.352C10.168 11.6507 10.104 11.992 9.976 12.376C9.42133 14.0827 8.86667 16.376 8.312 19.256C7.75733 22.1147 7.36267 24.8453 7.128 27.448C7.768 27.512 8.49333 27.544 9.304 27.544C13.0373 27.544 15.8213 26.4133 17.656 24.152C19.512 21.8907 20.44 18.872 20.44 15.096C20.44 12.5573 19.7147 10.5947 18.264 9.208C16.8133 7.82133 14.7653 7.128 12.12 7.128C10.4133 7.128 8.71733 7.39467 7.032 7.928C5.368 8.46133 3.864 9.16533 2.52 10.04C2.24267 10.232 1.944 10.328 1.624 10.328C1.26133 10.328 0.973333 10.1787 0.76 9.88C0.546667 9.56 0.44 9.176 0.44 8.728C0.44 8.216 0.525333 7.8 0.696 7.48C0.866667 7.13867 1.15467 6.82933 1.56 6.552C3.032 5.54933 4.76 4.792 6.744 4.28C8.728 3.74667 10.6373 3.48 12.472 3.48C15.0747 3.48 17.3253 3.93867 19.224 4.856C21.1227 5.752 22.584 7.07467 23.608 8.824C24.632 10.5733 25.144 12.6853 25.144 15.16C25.144 18.3813 24.504 21.1973 23.224 23.608C21.944 25.9973 20.0773 27.8533 17.624 29.176C15.1707 30.4987 12.248 31.16 8.856 31.16ZM44.886 21.176C45.1633 21.176 45.3767 21.3147 45.526 21.592C45.6753 21.8693 45.75 22.2213 45.75 22.648C45.75 23.672 45.4407 24.28 44.822 24.472C43.542 24.92 42.134 25.176 40.598 25.24C40.1927 27.032 39.3927 28.472 38.198 29.56C37.0033 30.6267 35.6487 31.16 34.134 31.16C32.854 31.16 31.7553 30.8507 30.838 30.232C29.942 29.6133 29.2593 28.792 28.79 27.768C28.3207 26.744 28.086 25.6347 28.086 24.44C28.086 22.8187 28.3953 21.3787 29.014 20.12C29.6327 18.84 30.486 17.848 31.574 17.144C32.662 16.4187 33.8673 16.056 35.19 16.056C36.8113 16.056 38.1127 16.6213 39.094 17.752C40.0967 18.8613 40.6833 20.2373 40.854 21.88C41.8567 21.816 43.0513 21.6027 44.438 21.24C44.6087 21.1973 44.758 21.176 44.886 21.176ZM34.39 27.768C35.0727 27.768 35.6593 27.4907 36.15 26.936C36.662 26.3813 37.0033 25.5813 37.174 24.536C36.5127 24.088 36.0007 23.5013 35.638 22.776C35.2967 22.0507 35.126 21.2827 35.126 20.472C35.126 20.1307 35.158 19.7893 35.222 19.448H35.062C34.2087 19.448 33.494 19.864 32.918 20.696C32.3633 21.5067 32.086 22.6587 32.086 24.152C32.086 25.3253 32.31 26.2213 32.758 26.84C33.2273 27.4587 33.7713 27.768 34.39 27.768ZM46.5555 31.16C45.7448 31.16 45.1688 30.7333 44.8275 29.88C44.5075 29.0267 44.3475 27.6613 44.3475 25.784C44.3475 23.0107 44.7422 20.376 45.5315 17.88C45.7235 17.2613 46.0328 16.8133 46.4595 16.536C46.9075 16.2373 47.5262 16.088 48.3155 16.088C48.7422 16.088 49.0408 16.1413 49.2115 16.248C49.3822 16.3547 49.4675 16.5573 49.4675 16.856C49.4675 17.1973 49.3075 17.9653 48.9875 19.16C48.7742 20.0133 48.6035 20.76 48.4755 21.4C48.3475 22.04 48.2408 22.8293 48.1555 23.768C48.8595 21.9333 49.6488 20.44 50.5235 19.288C51.3982 18.136 52.2515 17.3147 53.0835 16.824C53.9368 16.3333 54.7155 16.088 55.4195 16.088C56.8062 16.088 57.4995 16.7813 57.4995 18.168C57.4995 19 57.2648 20.504 56.7955 22.68C56.3902 24.536 56.1875 25.7627 56.1875 26.36C56.1875 27.2133 56.4968 27.64 57.1155 27.64C57.5422 27.64 58.0435 27.384 58.6195 26.872C59.2168 26.3387 60.0062 25.4853 60.9875 24.312C61.2435 24.0133 61.5315 23.864 61.8515 23.864C62.1288 23.864 62.3422 23.992 62.4915 24.248C62.6622 24.504 62.7475 24.856 62.7475 25.304C62.7475 26.1573 62.5448 26.8187 62.1395 27.288C61.2222 28.4187 60.2302 29.3467 59.1635 30.072C58.1182 30.7973 56.9235 31.16 55.5795 31.16C54.4915 31.16 53.6702 30.8507 53.1155 30.232C52.5608 29.592 52.2835 28.6747 52.2835 27.48C52.2835 26.8827 52.4328 25.816 52.7315 24.28C53.0088 22.936 53.1475 22.008 53.1475 21.496C53.1475 21.1547 53.0302 20.984 52.7955 20.984C52.5182 20.984 52.1235 21.3467 51.6115 22.072C51.1208 22.776 50.6088 23.7147 50.0755 24.888C49.5635 26.0613 49.1475 27.2987 48.8275 28.6C48.5928 29.6027 48.3155 30.2853 47.9955 30.648C47.6968 30.9893 47.2168 31.16 46.5555 31.16ZM65.1185 31.16C63.9025 31.16 62.9105 30.68 62.1425 29.72C61.3958 28.76 61.0225 27.5013 61.0225 25.944C61.0225 24.2373 61.4172 22.6267 62.2065 21.112C62.9958 19.576 64.0412 18.3493 65.3425 17.432C66.6652 16.4933 68.0625 16.024 69.5345 16.024C70.0038 16.024 70.3132 16.12 70.4625 16.312C70.6332 16.4827 70.7718 16.8027 70.8785 17.272C71.2838 17.1867 71.7318 17.144 72.2225 17.144C72.7345 17.144 73.1292 17.272 73.4065 17.528C73.6838 17.784 73.8225 18.1467 73.8225 18.616C73.8225 19.1067 73.7158 19.96 73.5025 21.176C73.2678 22.4773 73.0865 23.7253 72.9585 24.92C72.8305 26.0933 72.7665 27.416 72.7665 28.888C72.7665 29.6987 72.5958 30.2853 72.2545 30.648C71.9345 30.9893 71.4012 31.16 70.6545 31.16C69.9292 31.16 69.3852 30.9893 69.0225 30.648C68.6812 30.2853 68.5105 29.7093 68.5105 28.92L68.5425 28.408C67.8812 30.2427 66.7398 31.16 65.1185 31.16ZM66.3665 27.928C66.9638 27.928 67.5078 27.512 67.9985 26.68C68.4892 25.848 68.9265 24.3653 69.3105 22.232L69.9185 19C69.0438 19.0213 68.2332 19.3627 67.4865 20.024C66.7398 20.664 66.1425 21.5173 65.6945 22.584C65.2465 23.6507 65.0225 24.7813 65.0225 25.976C65.0225 26.616 65.1398 27.1067 65.3745 27.448C65.6305 27.768 65.9612 27.928 66.3665 27.928ZM93.0115 31.16C92.2222 31.16 91.6568 30.9893 91.3155 30.648C90.9742 30.2853 90.8035 29.6133 90.8035 28.632C90.8035 27.9707 90.8675 27.128 90.9955 26.104C91.1448 25.0587 91.3795 23.6293 91.6995 21.816C92.2542 18.4667 92.6915 15.5653 93.0115 13.112C93.2035 11.576 93.2995 10.296 93.2995 9.272C93.2995 8.312 92.9475 7.832 92.2435 7.832C91.6888 7.832 91.0168 8.12 90.2275 8.696C89.4595 9.25067 88.6062 10.1467 87.6675 11.384C87.3688 11.7893 87.0382 11.992 86.6755 11.992C86.3768 11.992 86.1102 11.8533 85.8755 11.576C85.6622 11.2773 85.5555 10.9467 85.5555 10.584C85.5555 10.2427 85.6195 9.90133 85.7475 9.56C85.8968 9.19733 86.1315 8.792 86.4515 8.344C87.4755 6.91467 88.6168 5.816 89.8755 5.048C91.1342 4.25867 92.3928 3.864 93.6515 3.864C94.8248 3.864 95.7208 4.23733 96.3395 4.984C96.9795 5.73067 97.2995 6.81867 97.2995 8.248C97.2995 8.824 97.2462 9.50667 97.1395 10.296C97.0328 11.064 96.9368 11.6933 96.8515 12.184C96.7662 12.6747 96.7022 13.016 96.6595 13.208C97.8755 9.73067 99.2408 7.30933 100.756 5.944C102.27 4.55733 103.934 3.864 105.748 3.864C107.134 3.864 108.222 4.35467 109.012 5.336C109.822 6.31733 110.228 7.704 110.228 9.496C110.228 10.2 110.132 11.0747 109.94 12.12C111.006 9.176 112.254 7.064 113.684 5.784C115.113 4.504 116.756 3.864 118.612 3.864C120.105 3.864 121.246 4.344 122.036 5.304C122.846 6.264 123.252 7.608 123.252 9.336C123.252 10.2747 123.113 11.416 122.836 12.76L120.884 21.912C120.67 22.9787 120.564 23.896 120.564 24.664C120.564 25.56 120.766 26.232 121.172 26.68C121.598 27.128 122.185 27.352 122.932 27.352C123.636 27.352 124.318 27.1173 124.98 26.648C125.662 26.1787 126.462 25.4 127.38 24.312C127.636 24.0133 127.924 23.864 128.244 23.864C128.521 23.864 128.734 23.992 128.884 24.248C129.054 24.504 129.14 24.856 129.14 25.304C129.14 26.136 128.937 26.7973 128.532 27.288C127.422 28.632 126.324 29.6133 125.236 30.232C124.148 30.8507 123.006 31.16 121.812 31.16C119.998 31.16 118.58 30.6267 117.556 29.56C116.532 28.472 116.02 27.0213 116.02 25.208C116.02 23.9493 116.276 22.1253 116.788 19.736L118.068 13.88C118.11 13.688 118.185 13.3467 118.292 12.856C118.398 12.3653 118.484 11.9067 118.548 11.48C118.612 11.032 118.644 10.5947 118.644 10.168C118.644 9.42133 118.494 8.86667 118.196 8.504C117.918 8.12 117.513 7.928 116.98 7.928C115.977 7.928 114.921 8.57867 113.812 9.88C112.724 11.16 111.678 13.2933 110.676 16.28C109.694 19.2667 108.894 23.1493 108.276 27.928C108.126 29.208 107.86 30.072 107.476 30.52C107.113 30.9467 106.516 31.16 105.684 31.16C104.958 31.16 104.425 30.9893 104.084 30.648C103.764 30.3067 103.604 29.6667 103.604 28.728C103.604 27.8533 103.721 26.712 103.956 25.304C104.19 23.8747 104.489 22.2 104.852 20.28C105.833 15.1173 106.324 11.7893 106.324 10.296C106.324 9.48533 106.164 8.888 105.844 8.504C105.545 8.12 105.086 7.928 104.468 7.928C103.422 7.928 102.345 8.52533 101.236 9.72C100.126 10.8933 99.0382 12.9947 97.9715 16.024C96.9262 19.032 96.0515 23.1067 95.3475 28.248C95.1982 29.336 94.9742 30.0933 94.6755 30.52C94.3982 30.9467 93.8435 31.16 93.0115 31.16ZM144.161 21.176C144.438 21.176 144.652 21.3147 144.801 21.592C144.95 21.8693 145.025 22.2213 145.025 22.648C145.025 23.672 144.716 24.28 144.097 24.472C142.817 24.92 141.409 25.176 139.873 25.24C139.468 27.032 138.668 28.472 137.473 29.56C136.278 30.6267 134.924 31.16 133.409 31.16C132.129 31.16 131.03 30.8507 130.113 30.232C129.217 29.6133 128.534 28.792 128.065 27.768C127.596 26.744 127.361 25.6347 127.361 24.44C127.361 22.8187 127.67 21.3787 128.289 20.12C128.908 18.84 129.761 17.848 130.849 17.144C131.937 16.4187 133.142 16.056 134.465 16.056C136.086 16.056 137.388 16.6213 138.369 17.752C139.372 18.8613 139.958 20.2373 140.129 21.88C141.132 21.816 142.326 21.6027 143.713 21.24C143.884 21.1973 144.033 21.176 144.161 21.176ZM133.665 27.768C134.348 27.768 134.934 27.4907 135.425 26.936C135.937 26.3813 136.278 25.5813 136.449 24.536C135.788 24.088 135.276 23.5013 134.913 22.776C134.572 22.0507 134.401 21.2827 134.401 20.472C134.401 20.1307 134.433 19.7893 134.497 19.448H134.337C133.484 19.448 132.769 19.864 132.193 20.696C131.638 21.5067 131.361 22.6587 131.361 24.152C131.361 25.3253 131.585 26.2213 132.033 26.84C132.502 27.4587 133.046 27.768 133.665 27.768ZM161.735 23.864C162.012 23.864 162.225 23.992 162.375 24.248C162.545 24.504 162.631 24.856 162.631 25.304C162.631 26.1573 162.428 26.8187 162.023 27.288C161.148 28.3547 160.188 29.272 159.143 30.04C158.097 30.7867 157.063 31.16 156.039 31.16C154.417 31.16 153.18 30.2107 152.327 28.312C151.431 29.4427 150.641 30.2 149.959 30.584C149.297 30.968 148.519 31.16 147.623 31.16C146.321 31.16 145.244 30.68 144.391 29.72C143.559 28.7387 143.143 27.4693 143.143 25.912C143.143 24.2053 143.505 22.6267 144.231 21.176C144.956 19.704 145.948 18.5093 147.207 17.592C148.487 16.6533 149.916 16.0987 151.495 15.928C151.9 11.7893 152.668 8.25867 153.799 5.336C154.951 2.392 156.455 0.919998 158.311 0.919998C159.228 0.919998 159.985 1.336 160.583 2.168C161.201 3 161.511 4.25867 161.511 5.944C161.511 8.33333 160.924 11.128 159.751 14.328C158.577 17.528 157.009 20.8133 155.047 24.184C155.132 25.4213 155.313 26.3067 155.591 26.84C155.889 27.3733 156.263 27.64 156.711 27.64C157.287 27.64 157.873 27.384 158.471 26.872C159.068 26.36 159.868 25.5067 160.871 24.312C161.127 24.0133 161.415 23.864 161.735 23.864ZM157.959 4.056C157.553 4.056 157.148 4.78133 156.743 6.232C156.337 7.66133 155.985 9.53867 155.687 11.864C155.409 14.1893 155.207 16.6213 155.079 19.16C157.468 13.9547 158.663 9.77333 158.663 6.616C158.663 5.80533 158.588 5.176 158.439 4.728C158.311 4.28 158.151 4.056 157.959 4.056ZM148.743 27.928C149.148 27.928 149.553 27.768 149.959 27.448C150.364 27.1067 150.876 26.488 151.495 25.592C151.281 24.44 151.175 23.1493 151.175 21.72C151.175 21.208 151.196 20.376 151.239 19.224C150.065 19.5867 149.084 20.376 148.295 21.592C147.527 22.7867 147.143 24.12 147.143 25.592C147.143 27.1493 147.676 27.928 148.743 27.928ZM164.675 31.16C163.459 31.16 162.467 30.68 161.699 29.72C160.952 28.76 160.579 27.5013 160.579 25.944C160.579 24.2373 160.973 22.6267 161.763 21.112C162.552 19.576 163.597 18.3493 164.899 17.432C166.221 16.4933 167.619 16.024 169.091 16.024C169.56 16.024 169.869 16.12 170.019 16.312C170.189 16.4827 170.328 16.8027 170.435 17.272C170.84 17.1867 171.288 17.144 171.779 17.144C172.291 17.144 172.685 17.272 172.963 17.528C173.24 17.784 173.379 18.1467 173.379 18.616C173.379 19.1067 173.272 19.96 173.059 21.176C172.824 22.4773 172.643 23.7253 172.515 24.92C172.387 26.0933 172.323 27.416 172.323 28.888C172.323 29.6987 172.152 30.2853 171.811 30.648C171.491 30.9893 170.957 31.16 170.211 31.16C169.485 31.16 168.941 30.9893 168.579 30.648C168.237 30.2853 168.067 29.7093 168.067 28.92L168.099 28.408C167.437 30.2427 166.296 31.16 164.675 31.16ZM165.923 27.928C166.52 27.928 167.064 27.512 167.555 26.68C168.045 25.848 168.483 24.3653 168.867 22.232L169.475 19C168.6 19.0213 167.789 19.3627 167.043 20.024C166.296 20.664 165.699 21.5173 165.251 22.584C164.803 23.6507 164.579 24.7813 164.579 25.976C164.579 26.616 164.696 27.1067 164.931 27.448C165.187 27.768 165.517 27.928 165.923 27.928Z" fill="#663399"/>
</svg>
